<mxfile host="app.diagrams.net" modified="2020-12-03T05:15:30.021Z" agent="5.0 (Windows)" etag="ulDg9Wjefah99N1FStPP" version="13.10.6" type="github">
  <diagram id="t4WjZeM2-GUBWeaEdBS7" name="Page-1">
    <mxGraphModel dx="1038" dy="547" grid="1" gridSize="10" guides="1" tooltips="1" connect="1" arrows="1" fold="1" page="1" pageScale="1" pageWidth="1169" pageHeight="827" math="0" shadow="0">
      <root>
        <mxCell id="0" />
        <mxCell id="1" parent="0" />
        <mxCell id="xgxU6Ofg0BOZaNesFyZN-1" value="Storage and Issuance" style="swimlane;html=1;childLayout=stackLayout;resizeParent=1;resizeParentMax=0;horizontal=1;startSize=20;horizontalStack=0;" vertex="1" parent="1">
          <mxGeometry x="290" y="90" width="480" height="380" as="geometry" />
        </mxCell>
        <mxCell id="xgxU6Ofg0BOZaNesFyZN-2" value="Lane 1" style="swimlane;html=1;startSize=20;horizontal=0;" vertex="1" parent="xgxU6Ofg0BOZaNesFyZN-1">
          <mxGeometry y="20" width="480" height="120" as="geometry" />
        </mxCell>
        <mxCell id="xgxU6Ofg0BOZaNesFyZN-3" value="Lane 2" style="swimlane;html=1;startSize=20;horizontal=0;" vertex="1" parent="xgxU6Ofg0BOZaNesFyZN-1">
          <mxGeometry y="140" width="480" height="120" as="geometry" />
        </mxCell>
        <mxCell id="xgxU6Ofg0BOZaNesFyZN-4" value="Lane 3" style="swimlane;html=1;startSize=20;horizontal=0;" vertex="1" parent="xgxU6Ofg0BOZaNesFyZN-1">
          <mxGeometry y="260" width="480" height="120" as="geometry" />
        </mxCell>
      </root>
    </mxGraphModel>
  </diagram>
</mxfile>
